PathFileType	4	(X/Y/Z)	s06c0301.trc
DataRate	CameraRate	NumFrames	NumMarkers	Units	OrigDataRate	OrigDataStartFrame	OrigNumFrames
200	200	4	48	mm	200	750	2000
Frame#	Time	racr			lacr			c7			jug			rlel			rdr			llel			ldr			s2			lic			ric			lasi			rasi			rpsi			lpsi			rgt			lgt			rth1			rth2			rth3			rth4			rlfc			rmfc			rsh1			rsh2			rsh3			rsh4			rlmal			rcal			rtoe			rmt5			lth1			lth2			lth4			lth3			llfc			lmfc			llmal			lcal			lmt5			lsh1			lsh2			lsh3			lsh4			ltoe			SBIKE			LBIKE			RBIKE			
		X1	Y1	Z1	X2	Y2	Z2	X3	Y3	Z3	X4	Y4	Z4	X5	Y5	Z5	X6	Y6	Z6	X7	Y7	Z7	X8	Y8	Z8	X9	Y9	Z9	X10	Y10	Z10	X11	Y11	Z11	X12	Y12	Z12	X13	Y13	Z13	X14	Y14	Z14	X15	Y15	Z15	X16	Y16	Z16	X17	Y17	Z17	X18	Y18	Z18	X19	Y19	Z19	X20	Y20	Z20	X21	Y21	Z21	X22	Y22	Z22	X23	Y23	Z23	X24	Y24	Z24	X25	Y25	Z25	X26	Y26	Z26	X27	Y27	Z27	X28	Y28	Z28	X29	Y29	Z29	X30	Y30	Z30	X31	Y31	Z31	X32	Y32	Z32	X33	Y33	Z33	X34	Y34	Z34	X35	Y35	Z35	X36	Y36	Z36	X37	Y37	Z37	X38	Y38	Z38	X39	Y39	Z39	X40	Y40	Z40	X41	Y41	Z41	X42	Y42	Z42	X43	Y43	Z43	X44	Y44	Z44	X45	Y45	Z45	X46	Y46	Z46	X47	Y47	Z47	X48	Y48	Z48	
750	3.7500	738.780912	1242.527712	-93.670193	737.722303	1234.523981	-403.529202	770.522749	1300.717728	-255.880185	674.581412	1151.199563	-240.683836	580.516844	1067.648995	48.143187	723.663043	923.870467	-52.383158	558.496672	1061.767385	-514.468604	709.260742	938.422616	-420.730458	185.947219	1243.492128	-187.310614	315.296346	1211.667536	-386.320504	336.138196	1146.141163	-59.392077	329.071399	1160.950228	-364.413134	349.293933	1104.143085	-105.312926	231.334165	1267.520236	-165.230077	219.616014	1277.087331	-224.667302	269.418194	1066.837770	-43.867027	288.914223	1178.573136	-411.231967	302.083736	942.926283	-38.511322	327.978571	857.178877	-48.659653	309.214887	773.027409	-56.302523	362.919843	861.133063	-61.327043	296.980740	665.403020	-68.204660	277.731288	646.364582	-181.055044	243.282481	560.021299	-40.347665	224.829199	476.793251	-57.882213	169.076206	408.937968	-58.463567	245.136262	469.564659	-93.212447	123.299799	341.849162	-64.597458	70.494702	369.310977	-112.000064	186.204642	117.312587	-96.928944	122.398868	197.143206	-34.926766	334.489455	1075.107227	-439.158306	409.823959	1031.593434	-439.134262	434.541040	1053.936177	-421.424858	454.089453	953.770374	-445.088386	500.142818	838.549762	-417.329741	507.951631	821.977718	-300.672691	260.412555	541.896739	-387.985810	179.369725	529.798055	-339.098960	359.594744	447.718658	-411.161636	434.033105	744.460062	-434.326397	397.404923	668.981264	-411.161396	325.626292	616.629687	-404.747034	420.016670	657.650734	-381.201511	444.383385	436.626757	-350.926454	-203.058481	868.374142	-217.603199	-49.835399	80.472154	-415.700474	-49.419987	81.339535	-18.250132	
751	3.7550	738.128993	1241.270481	-93.001493	737.035097	1233.381047	-402.664717	770.520351	1299.769783	-254.915633	673.428754	1150.878736	-240.410594	579.584940	1066.799409	48.493216	723.133981	923.758194	-52.493957	556.168569	1060.886628	-512.132129	708.334547	938.604780	-420.493147	185.682785	1245.144816	-187.864405	314.578231	1212.502176	-386.795682	333.902675	1148.582650	-58.556629	328.212028	1161.135014	-364.356001	348.014323	1106.054009	-104.649879	229.541513	1267.901816	-164.907453	219.138607	1278.505744	-225.307134	269.705128	1068.806679	-44.522961	286.359662	1178.237938	-412.034769	304.345450	944.983395	-40.425710	333.150136	859.880773	-51.070923	316.769944	774.910261	-59.392630	367.857710	864.888002	-63.965820	306.588658	668.176619	-71.246820	286.168221	650.980023	-182.995493	249.332489	563.872370	-42.620495	227.378833	481.452963	-60.204322	169.039135	416.111115	-59.870541	247.216448	473.418307	-95.531895	120.144560	349.911265	-66.009632	66.943486	379.677147	-112.192911	177.621407	123.872466	-96.975027	115.707441	205.383510	-35.462654	330.612469	1073.261955	-440.171272	405.184078	1028.296715	-440.126260	430.387488	1050.203334	-422.521582	447.888669	949.561057	-445.558835	492.203603	833.345589	-418.445983	499.559750	815.660039	-301.733130	262.326107	529.726775	-388.715506	181.982383	514.760383	-339.382083	365.012523	439.516361	-412.021713	429.363814	737.532930	-434.507048	395.142458	660.522988	-411.781351	325.063542	606.072098	-405.235986	418.161360	650.049757	-381.713661	450.425294	431.956770	-352.012165	-203.001410	868.410591	-217.961931	-49.838951	80.446762	-415.830987	-49.399778	81.377046	-18.402511	
752	3.7600	737.519126	1240.246955	-91.846932	736.549068	1231.944690	-401.988837	770.527372	1298.985535	-253.651120	672.705645	1150.470451	-239.711097	578.773581	1066.102574	48.919225	722.539462	923.617317	-52.638623	553.507905	1059.971316	-510.072337	707.324291	937.866774	-419.015097	185.423569	1246.284168	-188.709088	313.977327	1212.632391	-387.230738	331.538965	1150.701480	-57.639792	327.419008	1160.915744	-364.215158	346.777052	1107.819416	-103.448084	228.540216	1269.693122	-165.646361	218.850068	1279.540915	-226.061218	269.652585	1071.079399	-44.017841	283.870542	1177.638628	-412.784827	307.465140	946.623901	-42.488098	338.057693	862.479508	-53.567182	325.028557	777.494640	-60.667014	372.819488	868.627003	-65.957671	315.956571	670.967515	-74.112629	294.008754	655.145558	-186.772199	255.296485	567.548755	-44.599852	229.314229	485.760380	-63.353981	169.198226	422.972751	-61.252419	249.079663	477.391369	-97.767547	117.524872	358.132387	-66.897834	65.303198	387.876570	-113.650872	169.616514	130.834855	-97.369887	109.636986	213.772811	-35.997381	326.747324	1070.730805	-441.036878	400.292413	1023.825042	-440.509334	426.255321	1046.286492	-425.157090	441.252411	944.546149	-445.998025	484.212706	827.652870	-419.474437	491.470431	809.112307	-302.830618	264.520730	517.143964	-389.001890	184.466016	499.670695	-339.564644	369.768642	430.962482	-413.588178	424.588847	729.962794	-434.957472	392.879749	651.752926	-412.433075	324.484267	595.216336	-405.636557	416.144875	641.989872	-382.278222	455.839874	426.257435	-353.588521	-202.945512	868.379513	-218.352751	-49.829020	80.378269	-415.981277	-49.403963	81.378082	-18.529329	
753	3.7650	736.782994	1239.524885	-90.266344	736.175215	1230.136601	-401.519548	770.612579	1298.045490	-252.797892	671.832422	1150.118422	-238.845542	578.208956	1065.283909	49.464863	721.855874	923.500463	-52.809711	550.664295	1058.881795	-507.977957	706.604386	938.414214	-420.032849	185.144534	1247.179779	-189.550371	313.488658	1212.097599	-387.626650	329.187884	1152.448796	-56.932117	326.698784	1160.276018	-363.982935	345.372350	1108.899373	-102.296738	227.460962	1271.606794	-166.740103	218.140855	1280.221086	-227.033040	269.424589	1073.406222	-42.694625	281.733857	1176.589849	-413.487556	310.000782	948.454344	-43.789332	343.920565	865.363371	-54.555330	332.808520	779.406785	-63.301748	377.647457	872.539973	-67.737930	325.042846	673.786192	-76.809673	302.327219	658.504942	-189.157743	260.920268	571.234530	-46.532118	231.779963	490.441573	-65.184786	169.545532	429.842786	-62.345749	250.751983	481.408068	-99.901619	115.357745	366.462301	-67.315688	63.219967	397.311147	-113.806154	162.235290	138.237241	-97.842386	104.060724	222.394848	-36.409937	322.854292	1067.610358	-441.680904	395.267052	1019.021056	-441.453788	421.988961	1041.121475	-427.169573	434.064995	938.687813	-445.985892	476.370576	821.274900	-420.353796	484.027266	803.144304	-303.716606	266.462719	504.351400	-389.345919	187.476139	484.625684	-338.635026	373.849630	421.576375	-414.757253	419.808604	721.433494	-436.126986	390.507354	642.579871	-412.848870	323.979588	584.112950	-405.773672	414.330352	633.574315	-382.622928	460.613785	419.634336	-355.557398	-202.872250	868.330804	-218.760819	-49.834025	80.246430	-416.124011	-49.414480	81.379780	-18.642808	
